<?xml version="1.0" encoding="UTF-8" standalone="no"?>
<!-- Created with Inkscape (http://www.inkscape.org/) -->

<svg
   xmlns:dc="http://purl.org/dc/elements/1.1/"
   xmlns:cc="http://creativecommons.org/ns#"
   xmlns:rdf="http://www.w3.org/1999/02/22-rdf-syntax-ns#"
   xmlns:svg="http://www.w3.org/2000/svg"
   xmlns="http://www.w3.org/2000/svg"
   xmlns:sodipodi="http://sodipodi.sourceforge.net/DTD/sodipodi-0.dtd"
   xmlns:inkscape="http://www.inkscape.org/namespaces/inkscape"
   width="210mm"
   height="297mm"
   viewBox="0 0 744.09448819 1052.3622047"
   id="svg2"
   version="1.1"
   inkscape:version="0.91 r13725"
   sodipodi:docname="drawing.svg">
  <defs
     id="defs4" />
  <sodipodi:namedview
     id="base"
     pagecolor="#ffffff"
     bordercolor="#666666"
     borderopacity="1.0"
     inkscape:pageopacity="0.0"
     inkscape:pageshadow="2"
     inkscape:zoom="0.29"
     inkscape:cx="-120.71429"
     inkscape:cy="520"
     inkscape:document-units="px"
     inkscape:current-layer="layer1"
     showgrid="false"
     inkscape:window-width="1440"
     inkscape:window-height="856"
     inkscape:window-x="8"
     inkscape:window-y="0"
     inkscape:window-maximized="0" />
  <metadata
     id="metadata7">
    <rdf:RDF>
      <cc:Work
         rdf:about="">
        <dc:format>image/svg+xml</dc:format>
        <dc:type
           rdf:resource="http://purl.org/dc/dcmitype/StillImage" />
        <dc:title></dc:title>
      </cc:Work>
    </rdf:RDF>
  </metadata>
  <g
     inkscape:label="Layer 1"
     inkscape:groupmode="layer"
     id="layer1">
    <rect
       style="opacity:1;fill:#000080;fill-opacity:1;fill-rule:nonzero;stroke:none;stroke-width:7.08661413;stroke-linecap:butt;stroke-linejoin:round;stroke-miterlimit:4;stroke-dasharray:none;stroke-dashoffset:0;stroke-opacity:1"
       id="rect4136"
       width="211.42857"
       height="205.71428"
       x="65.714287"
       y="200.93364" />
    <ellipse
       style="opacity:1;fill:#d60080;fill-opacity:1;fill-rule:nonzero;stroke:none;stroke-width:7.08661413;stroke-linecap:butt;stroke-linejoin:round;stroke-miterlimit:4;stroke-dasharray:none;stroke-dashoffset:0;stroke-opacity:1"
       id="path4138"
       cx="498.57144"
       cy="569.50507"
       rx="115.71429"
       ry="122.85714" />
    <path
       sodipodi:type="star"
       style="opacity:1;fill:#d6f60e;fill-opacity:1;fill-rule:nonzero;stroke:none;stroke-width:7.08661413;stroke-linecap:butt;stroke-linejoin:round;stroke-miterlimit:4;stroke-dasharray:none;stroke-dashoffset:0;stroke-opacity:1"
       id="path4140"
       sodipodi:sides="7"
       sodipodi:cx="317.24139"
       sodipodi:cy="459.25878"
       sodipodi:r1="136.02126"
       sodipodi:r2="96.181557"
       sodipodi:arg1="1.0390723"
       sodipodi:arg2="1.4878713"
       inkscape:flatsided="false"
       inkscape:rounded="0.11"
       inkscape:randomized="0"
       d="m 386.2069,576.50017 c -6.12874,3.60514 -53.91276,-21.97929 -60.99879,-21.39033 -7.08602,0.58896 -49.9906,33.71103 -56.63042,31.16716 -6.63983,-2.54388 -16.42996,-55.85456 -21.30849,-61.02743 -4.87853,-5.17286 -57.52498,-18.06573 -59.67597,-24.84304 -2.15098,-6.77731 33.42495,-47.67021 34.42754,-54.70963 1.0026,-7.03942 -21.74188,-56.23864 -17.78428,-62.14593 3.9576,-5.90729 58.11018,-3.58921 64.23893,-7.19436 6.12874,-3.60514 30.4133,-52.06271 37.49932,-52.65166 7.08603,-0.58896 39.03727,43.19452 45.6771,45.7384 6.63982,2.54388 59.66664,-8.68249 64.54518,-3.50962 4.87853,5.17287 -9.43151,57.45191 -7.28053,64.22922 2.15099,6.7773 43.98979,41.23582 42.9872,48.27524 -1.0026,7.03941 -50.79816,28.44683 -54.75576,34.35412 -3.9576,5.90728 -4.81228,60.10271 -10.94103,63.70786 z" />
  </g>
</svg>
