<?xml version="1.0" encoding="UTF-8" standalone="no"?>
<!-- Created with Inkscape (http://www.inkscape.org/) -->

<svg
   xmlns:dc="http://purl.org/dc/elements/1.1/"
   xmlns:cc="http://creativecommons.org/ns#"
   xmlns:rdf="http://www.w3.org/1999/02/22-rdf-syntax-ns#"
   xmlns:svg="http://www.w3.org/2000/svg"
   xmlns="http://www.w3.org/2000/svg"
   xmlns:sodipodi="http://sodipodi.sourceforge.net/DTD/sodipodi-0.dtd"
   xmlns:inkscape="http://www.inkscape.org/namespaces/inkscape"
   width="210mm"
   height="297mm"
   viewBox="0 0 744.09448819 1052.3622047"
   id="svg2"
   version="1.1"
   inkscape:version="0.48.5 r10040"
   sodipodi:docname="drawing.svg">
  <defs
     id="defs4">
    <inkscape:perspective
       sodipodi:type="inkscape:persp3d"
       inkscape:vp_x="100 : 495.14661 : 1"
       inkscape:vp_y="0 : 1000 : 0"
       inkscape:vp_z="844.09448 : 495.14661 : 1"
       inkscape:persp3d-origin="472.04724 : 319.75291 : 1"
       id="perspective2986" />
  </defs>
  <sodipodi:namedview
     id="base"
     pagecolor="#ffffff"
     bordercolor="#666666"
     borderopacity="1.0"
     inkscape:pageopacity="0.0"
     inkscape:pageshadow="2"
     inkscape:zoom="0.29"
     inkscape:cx="-120.71429"
     inkscape:cy="520"
     inkscape:document-units="px"
     inkscape:current-layer="layer1"
     showgrid="false"
     inkscape:window-width="1280"
     inkscape:window-height="755"
     inkscape:window-x="16"
     inkscape:window-y="0"
     inkscape:window-maximized="0" />
  <metadata
     id="metadata7">
    <rdf:RDF>
      <cc:Work
         rdf:about="">
        <dc:format>image/svg+xml</dc:format>
        <dc:type
           rdf:resource="http://purl.org/dc/dcmitype/StillImage" />
        <dc:title />
      </cc:Work>
    </rdf:RDF>
  </metadata>
  <g
     inkscape:label="Layer 1"
     inkscape:groupmode="layer"
     id="layer1">
    <rect
       style="opacity:1;fill:#000080;fill-opacity:1;fill-rule:nonzero;stroke:none;stroke-width:7.08661413;stroke-linecap:butt;stroke-linejoin:round;stroke-miterlimit:4;stroke-dasharray:none;stroke-dashoffset:0;stroke-opacity:1"
       id="rect4136"
       width="211.42857"
       height="205.71428"
       x="65.714287"
       y="200.93364" />
    <ellipse
       style="opacity:1;fill:#d60080;fill-opacity:1;fill-rule:nonzero;stroke:none;stroke-width:7.08661413;stroke-linecap:butt;stroke-linejoin:round;stroke-miterlimit:4;stroke-dasharray:none;stroke-dashoffset:0;stroke-opacity:1"
       id="path4138"
       cx="498.57144"
       cy="569.50507"
       rx="115.71429"
       ry="122.85714" />
    <path
       sodipodi:type="star"
       style="opacity:1;fill:#d6f60e;fill-opacity:1;fill-rule:nonzero;stroke:none;stroke-width:7.08661413;stroke-linecap:butt;stroke-linejoin:round;stroke-miterlimit:4;stroke-dasharray:none;stroke-dashoffset:0;stroke-opacity:1"
       id="path4140"
       sodipodi:sides="7"
       sodipodi:cx="317.24139"
       sodipodi:cy="459.25878"
       sodipodi:r1="136.02126"
       sodipodi:r2="96.181557"
       sodipodi:arg1="1.0390723"
       sodipodi:arg2="1.4878713"
       inkscape:flatsided="false"
       inkscape:rounded="0.11"
       inkscape:randomized="0"
       d="m 386.2069,576.50017 c -6.12874,3.60514 -53.91276,-21.97929 -60.99879,-21.39033 -7.08602,0.58896 -49.9906,33.71103 -56.63042,31.16716 -6.63983,-2.54388 -16.42996,-55.85456 -21.30849,-61.02743 -4.87853,-5.17286 -57.52498,-18.06573 -59.67597,-24.84304 -2.15098,-6.77731 33.42495,-47.67021 34.42754,-54.70963 1.0026,-7.03942 -21.74188,-56.23864 -17.78428,-62.14593 3.9576,-5.90729 58.11018,-3.58921 64.23893,-7.19436 6.12874,-3.60514 30.4133,-52.06271 37.49932,-52.65166 7.08603,-0.58896 39.03727,43.19452 45.6771,45.7384 6.63982,2.54388 59.66664,-8.68249 64.54518,-3.50962 4.87853,5.17287 -9.43151,57.45191 -7.28053,64.22922 2.15099,6.7773 43.98979,41.23582 42.9872,48.27524 -1.0026,7.03941 -50.79816,28.44683 -54.75576,34.35412 -3.9576,5.90728 -4.81228,60.10271 -10.94103,63.70786 z" />
    <path
       sodipodi:type="spiral"
       style="fill:none;stroke:#000000;stroke-width:1px;stroke-linecap:butt;stroke-linejoin:miter;stroke-opacity:1"
       id="path2985"
       sodipodi:cx="165.51724"
       sodipodi:cy="679.94836"
       sodipodi:expansion="1"
       sodipodi:revolution="3.8545122"
       sodipodi:radius="150.34641"
       sodipodi:argument="-23.5797"
       sodipodi:t0="0"
       d="m 165.51724,679.94836 c 0.10417,5.86607 -7.85595,3.03453 -9.74979,0.17314 -5.13218,-7.7542 1.89232,-17.13409 9.40353,-19.67271 13.43579,-4.541 26.63268,6.14432 29.59563,18.98018 4.34825,18.83714 -10.41312,36.2996 -28.55684,39.51855 -24.18273,4.29035 -46.03145,-14.6825 -49.44147,-38.1335 -4.29115,-29.51069 18.95086,-55.79551 47.71016,-59.36438 34.83136,-4.32239 65.57796,23.21837 69.2873,57.28681 4.37132,40.14847 -27.48533,75.37193 -66.86347,79.21022 -45.46362,4.43146 -85.173572,-31.75191 -89.133139,-76.44012 -4.499111,-50.7776 36.018229,-94.98061 86.016779,-99.05606 56.09082,-4.57205 104.79154,40.28437 108.97898,95.59343 4.64885,61.40354 -44.55041,114.60543 -105.17009,118.9019 -66.7159,4.72855 -124.421576,-48.81635 -128.824821,-114.74675 -4.810481,-72.02801 53.082225,-134.2395 124.323411,-138.74774 77.33992,-4.89417 144.05884,57.34805 148.67065,133.90007 1.96123,32.5547 -7.21735,65.30907 -25.55717,92.25214"
       transform="translate(68.965514,-65.517243)" />
    <g
       sodipodi:type="inkscape:box3d"
       style="fill:none;stroke:none"
       id="g2988"
       inkscape:perspectiveID="#perspective2986"
       inkscape:corner0="0.14780531 : 0.57675938 : 0 : 1"
       inkscape:corner7="-0.17004846 : 0.3683073 : 0.25 : 1">
      <path
         sodipodi:type="inkscape:box3dside"
         id="path3000"
         style="fill:#e9e9ff;fill-rule:evenodd;stroke:none"
         inkscape:box3dsidetype="11"
         d="m 499.24792,270.07568 117.50755,-84.51167 0,193.01985 -117.50755,40.61994 z" />
      <path
         sodipodi:type="inkscape:box3dside"
         id="path2990"
         style="fill:#353564;fill-rule:evenodd;stroke:none"
         inkscape:box3dsidetype="6"
         d="m 424.13794,207.5346 0,181.60927 75.10998,30.05993 0,-149.12812 z" />
      <path
         sodipodi:type="inkscape:box3dside"
         id="path2992"
         style="fill:#4d4d9f;fill-rule:evenodd;stroke:none"
         inkscape:box3dsidetype="5"
         d="M 424.13794,207.5346 548.27587,73.61423 616.75547,185.56401 499.24792,270.07568 z" />
      <path
         sodipodi:type="inkscape:box3dside"
         id="path2998"
         style="fill:#afafde;fill-rule:evenodd;stroke:none"
         inkscape:box3dsidetype="13"
         d="m 424.13794,389.14387 124.13793,-64.36789 68.4796,53.80788 -117.50755,40.61994 z" />
      <path
         sodipodi:type="inkscape:box3dside"
         id="path2996"
         style="fill:#d7d7ff;fill-rule:evenodd;stroke:none"
         inkscape:box3dsidetype="14"
         d="m 548.27587,73.61423 0,251.16175 68.4796,53.80788 0,-193.01985 z" />
      <path
         sodipodi:type="inkscape:box3dside"
         id="path2994"
         style="fill:#8686bf;fill-rule:evenodd;stroke:none"
         inkscape:box3dsidetype="3"
         d="m 424.13794,207.5346 124.13793,-133.92037 0,251.16175 -124.13793,64.36789 z" />
    </g>
  </g>
</svg>
